HIERARCHY
ROOT Hips
{
 OFFSET 0.000000 0.000000 0.000000
 CHANNELS 6 Xposition Yposition Zposition Yrotation Xrotation Zrotation
 JOINT Chest
 {
  OFFSET 0.000000 9.585900 0.002600
  CHANNELS 3 Yrotation Xrotation Zrotation
  JOINT Chest2
  {
   OFFSET 0.000000 9.601200 -0.005300
   CHANNELS 3 Yrotation Xrotation Zrotation
   JOINT Chest3
   {
    OFFSET 0.000000 9.561800 0.000000
    CHANNELS 3 Yrotation Xrotation Zrotation
    JOINT Chest4
    {
     OFFSET 0.000000 9.552100 0.000000
     CHANNELS 3 Yrotation Xrotation Zrotation
     JOINT Neck
     {
      OFFSET 0.000000 14.453000 0.000000
      CHANNELS 3 Yrotation Xrotation Zrotation
      JOINT Head
      {
       OFFSET 0.000000 8.936500 -0.011300
       CHANNELS 3 Yrotation Xrotation Zrotation
       End Site
       {
        OFFSET 0.000000 17.073600 -0.006000
       }
      }
     }
     JOINT RightCollar
     {
      OFFSET -2.921100 9.558500 0.000000
      CHANNELS 3 Yrotation Xrotation Zrotation
      JOINT RightShoulder
      {
       OFFSET -13.519700 0.000000 0.000000
       CHANNELS 3 Yrotation Xrotation Zrotation
       JOINT RightElbow
       {
        OFFSET 0.000000 -29.696600 0.000000
        CHANNELS 3 Yrotation Xrotation Zrotation
        JOINT RightWrist
        {
         OFFSET 0.000000 -24.004700 0.000000
         CHANNELS 3 Yrotation Xrotation Zrotation
         End Site
         {
          OFFSET 0.000000 -17.728500 0.000000
         }
        }
       }
      }
     }
     JOINT LeftCollar
     {
      OFFSET 2.921100 9.558500 0.000000
      CHANNELS 3 Yrotation Xrotation Zrotation
      JOINT LeftShoulder
      {
       OFFSET 13.519700 0.000000 0.000000
       CHANNELS 3 Yrotation Xrotation Zrotation
       JOINT LeftElbow
       {
        OFFSET 0.000000 -29.696600 0.000000
        CHANNELS 3 Yrotation Xrotation Zrotation
        JOINT LeftWrist
        {
         OFFSET 0.000000 -24.004700 0.000000
         CHANNELS 3 Yrotation Xrotation Zrotation
         End Site
         {
          OFFSET 0.000000 -17.728500 0.000000
         }
        }
       }
      }
     }
    }
   }
  }
 }
 JOINT RightHip
 {
  OFFSET -7.771700 -0.012900 -0.001300
  CHANNELS 3 Yrotation Xrotation Zrotation
  JOINT RightKnee
  {
   OFFSET 0.000000 -40.869800 0.001200
   CHANNELS 3 Yrotation Xrotation Zrotation
   JOINT RightAnkle
   {
    OFFSET 0.000000 -39.717900 0.002100
    CHANNELS 3 Yrotation Xrotation Zrotation
    JOINT RightToe
    {
     OFFSET 0.000000 -4.965400 11.033500
     CHANNELS 3 Yrotation Xrotation Zrotation
     End Site
     {
      OFFSET 0.000000 -1.423100 5.872300
     }
    }
   }
  }
 }
 JOINT LeftHip
 {
  OFFSET 7.771700 -0.012900 -0.001300
  CHANNELS 3 Yrotation Xrotation Zrotation
  JOINT LeftKnee
  {
   OFFSET 0.000000 -40.869800 0.001200
   CHANNELS 3 Yrotation Xrotation Zrotation
   JOINT LeftAnkle
   {
    OFFSET 0.000000 -39.717900 0.002100
    CHANNELS 3 Yrotation Xrotation Zrotation
    JOINT LeftToe
    {
     OFFSET 0.000000 -4.965400 11.033500
     CHANNELS 3 Yrotation Xrotation Zrotation
     End Site
     {
      OFFSET 0.000000 -1.423100 5.872300
     }
    }
   }
  }
 }
}
MOTION
Frames: 11
Frame Time: 0.008333
0.000000 85.388000 0.000000 0.000000 -5.767877 0.000000 0.000000 11.653817 0.000000 0.000000 -5.885947 0.000000 0.000000 -0.000000 0.000000 0.000000 -0.000000 0.000000 0.000000 12.528835 0.000000 0.000000 0.711642 0.000000 0.000000 -0.000000 0.000000 0.000000 0.000000 -90.000000 0.000000 -2.309062 0.000000 0.000000 2.309062 0.000000 0.000000 -0.000000 0.000000 0.000000 -0.000000 90.000000 0.000000 -2.309062 0.000000 0.000000 2.309062 0.000000 0.000000 8.520406 0.000000 0.000000 1.905762 0.000000 -0.000000 -4.658285 0.000000 0.000000 -0.000000 0.000000 0.000000 8.520406 0.000000 0.000000 1.905762 0.000000 -0.000000 -4.658285 0.000000 0.000000 -0.000000 0.000000
-187.895417 58.003741 29.131967 170.871742 -48.837028 -3.253264 5.092142 21.858968 3.680579 2.586620 12.567078 1.942938 3.345741 15.624002 2.516677 2.598268 12.535835 1.936677 4.549410 17.652675 -0.502801 8.567624 -2.857436 -2.300818 0.600232 4.736649 0.051062 -5.494916 -12.323351 -6.969710 -128.382040 -63.589585 161.147596 5.565785 -1.960628 -29.887654 -8.862281 2.993475 0.496058 15.094990 -8.326333 5.423827 121.773719 -62.525623 -151.291914 -4.207780 -7.536962 5.824468 3.817372 -23.973960 0.835584 -37.899192 73.472684 -39.024620 6.268508 -12.451619 8.914679 0.033793 -0.241296 0.018418 -0.944882 -22.403508 12.648997 52.161972 79.646687 52.158442 4.197045 -16.187695 -15.910462 0.104347 0.204300 0.047520
-187.896537 58.006657 29.130573 170.877329 -48.884820 -3.257464 5.105819 21.851210 3.679088 2.601622 12.540130 1.939045 3.351064 15.621883 2.519094 2.606950 12.523144 1.934907 4.554755 17.743558 -0.356265 8.509910 -2.696087 -2.125721 0.612884 4.741199 0.088879 -5.331720 -12.343606 -7.069071 -127.917179 -63.862309 160.784079 5.806452 -1.346299 -29.346451 -8.884104 2.964232 0.448662 14.835794 -8.404489 5.674522 121.681663 -62.829104 -151.414410 -4.876238 -6.907181 4.972921 3.816624 -23.924858 0.840336 -37.901127 73.470479 -39.025843 6.261332 -12.441849 8.913694 0.037704 -0.249049 0.020740 -0.941996 -22.354804 12.649788 52.144653 79.644827 52.140181 4.193925 -16.179953 -15.907204 0.098864 0.198263 0.047516
-187.898856 58.007560 29.131111 170.887667 -48.921817 -3.262416 5.113532 21.826764 3.672241 2.613685 12.509030 1.931448 3.355299 15.620760 2.521298 2.613696 12.509018 1.931446 4.557069 17.848827 -0.222441 8.462180 -2.510206 -1.908550 0.633110 4.756047 0.127180 -5.157237 -12.374095 -7.170835 -127.378416 -64.156126 160.350046 6.071392 -0.732985 -28.729254 -8.905268 2.938648 0.397333 14.508944 -8.481603 5.932510 121.695456 -63.160615 -151.595857 -5.555817 -6.360588 4.143209 3.816132 -23.885298 0.834313 -37.877914 73.473935 -38.998875 6.260001 -12.441948 8.914232 0.033986 -0.248895 0.019105 -0.934498 -22.320211 12.645956 52.100607 79.649412 52.102161 4.192829 -16.176807 -15.903342 0.106824 0.194914 0.049247
-187.902486 58.007571 29.132541 170.903456 -48.956487 -3.266901 5.109917 21.830135 3.664500 2.621041 12.481259 1.925056 3.363598 15.581128 2.508836 2.610380 12.550711 1.950911 4.557871 17.904804 -0.159431 8.416781 -2.294225 -1.622989 0.663424 4.721692 0.137554 -4.968594 -12.411598 -7.275391 -126.777338 -64.465589 159.852382 6.367918 -0.113639 -28.030868 -8.921545 2.855123 0.322091 14.114338 -8.555276 6.199679 121.817045 -63.510487 -151.826414 -6.240218 -5.894552 3.343657 3.810568 -23.848978 0.826524 -37.892380 73.468816 -39.011253 6.272118 -12.442217 8.909119 0.040956 -0.247649 0.022064 -0.927394 -22.289695 12.638317 52.054327 79.652236 52.052972 4.197299 -16.171561 -15.885888 0.098713 0.194333 0.044426
-187.905513 58.008293 29.133850 170.920020 -49.000807 -3.277393 5.109899 21.841146 3.664767 2.618039 12.493957 1.927142 3.376002 15.498784 2.479873 2.618855 12.507332 1.935006 4.560824 18.067569 0.015006 8.369118 -2.058868 -1.371890 0.681789 4.776480 0.186004 -4.762392 -12.455426 -7.384189 -126.151219 -64.790970 159.320879 6.688896 0.506754 -27.256950 -8.952852 2.864868 0.268086 13.675036 -8.629820 6.472278 122.003046 -63.875938 -152.085881 -6.927751 -5.496819 2.582680 3.803044 -23.800464 0.825303 -37.884840 73.465145 -39.001944 6.270463 -12.445073 8.909180 0.044054 -0.243291 0.022331 -0.926301 -22.248708 12.633301 52.037680 79.653279 52.039905 4.200932 -16.167854 -15.884650 0.095374 0.192774 0.046172
-187.909704 58.008819 29.135370 170.934838 -49.047895 -3.281312 5.122966 21.741768 3.637882 2.613991 12.552710 1.946571 3.378911 15.478116 2.467982 2.627914 12.463879 1.918647 4.562609 18.241971 0.203477 8.316705 -1.810693 -1.102880 0.700083 4.836274 0.236747 -4.540868 -12.508695 -7.498860 -125.525317 -65.132812 158.781607 7.030095 1.112546 -26.414587 -8.986577 2.876979 0.215820 13.215867 -8.707781 6.750998 122.196318 -64.252145 -152.349366 -7.612861 -5.142269 1.860821 3.801763 -23.750536 0.814436 -37.873718 73.463789 -38.986726 6.275166 -12.444795 8.910305 0.043250 -0.242600 0.020950 -0.920579 -22.205264 12.624229 52.026076 79.652372 52.026331 4.199095 -16.163975 -15.873521 0.090803 0.191613 0.044338
-187.912418 58.008665 29.138115 170.945261 -49.092978 -3.292566 5.133541 21.708749 3.630994 2.629014 12.473169 1.920799 3.381386 15.525841 2.489462 2.633409 12.450634 1.913648 4.560799 18.384852 0.366021 8.255561 -1.556674 -0.795262 0.704967 4.907945 0.289352 -4.288288 -12.610884 -7.632027 -124.913233 -65.486081 158.252826 7.378242 1.693359 -25.506475 -9.022982 2.857059 0.154729 12.745333 -8.791042 7.041028 122.353531 -64.623025 -152.592927 -8.277423 -4.794648 1.171974 3.798388 -23.702335 0.818628 -37.861597 73.456660 -38.976753 6.286164 -12.445895 8.919481 0.035424 -0.239052 0.016160 -0.917717 -22.164667 12.627420 52.018033 79.655604 52.024010 4.193458 -16.163307 -15.873059 0.094452 0.189854 0.046726
-187.914317 58.006861 29.142761 170.958771 -49.128051 -3.312936 5.144899 21.664739 3.630557 2.639550 12.438715 1.908629 3.386374 15.532989 2.492871 2.639583 12.438799 1.908549 4.554809 18.522630 0.535483 8.185347 -1.312425 -0.474569 0.707487 4.975749 0.344162 -4.022492 -12.715047 -7.775015 -124.318214 -65.843267 157.742077 7.717798 2.248973 -24.537561 -9.068391 2.833975 0.089581 12.259422 -8.879354 7.339617 122.430624 -64.978319 -152.780761 -8.913456 -4.428722 0.508612 3.791447 -23.662892 0.825524 -37.838513 73.453399 -38.947636 6.291491 -12.458562 8.922462 0.029864 -0.225231 0.011925 -0.905350 -22.140781 12.645460 52.005241 79.669269 52.023965 4.169765 -16.169080 -15.866347 0.106688 0.188183 0.053090
-187.918140 58.007395 29.145092 170.970780 -49.185821 -3.318321 5.154751 21.645343 3.616181 2.646091 12.428722 1.904139 3.394318 15.520524 2.487291 2.646099 12.428735 1.904062 4.544259 18.647969 0.709575 8.106349 -1.091284 -0.145115 0.732129 4.996240 0.381865 -3.771749 -12.776042 -7.909175 -123.724894 -66.197778 157.234448 8.060930 2.773896 -23.513917 -9.117987 2.806386 0.019178 11.751523 -8.971326 7.642811 122.404048 -65.323013 -152.890600 -9.498749 -4.041811 -0.145757 3.790217 -23.601676 0.821153 -37.829113 73.447581 -38.936512 6.300145 -12.459795 8.924509 0.025014 -0.221709 0.010860 -0.903406 -22.084695 12.644347 52.007800 79.664206 52.017972 4.165428 -16.167132 -15.857003 0.095383 0.190755 0.053598
-187.919941 58.010711 29.145754 170.987476 -49.267525 -3.337028 5.170080 21.650237 3.613468 2.652249 12.420992 1.900345 3.401878 15.510844 2.482634 2.644551 12.465297 1.930485 4.525372 18.712763 0.850280 8.017465 -0.905594 0.191689 0.777495 4.936741 0.357055 -3.529708 -12.804285 -8.022529 -123.122452 -66.543881 156.714539 8.431003 3.260119 -22.451826 -9.158908 2.728450 -0.076984 11.221513 -9.070258 7.949033 122.249660 -65.664707 -152.902528 -10.006860 -3.640736 -0.806792 3.782566 -23.516291 0.831948 -37.828827 73.436196 -38.935108 6.312127 -12.445391 8.922552 0.022481 -0.231697 0.014225 -0.908087 -22.002407 12.652734 52.005796 79.662188 52.012180 4.163446 -16.163545 -15.853412 0.103904 0.186169 0.052777
